<svg id="visual" viewBox="0 0 900 600" width="900" height="600" xmlns="http://www.w3.org/2000/svg" xmlns:xlink="http://www.w3.org/1999/xlink" version="1.1"><rect x="0" y="0" width="900" height="600" fill="#d5ffad"></rect><defs><linearGradient id="grad1_0" x1="33.3%" y1="100%" x2="100%" y2="0%"><stop offset="20%" stop-color="#adbcff" stop-opacity="1"></stop><stop offset="80%" stop-color="#adbcff" stop-opacity="1"></stop></linearGradient></defs><defs><linearGradient id="grad1_1" x1="33.3%" y1="100%" x2="100%" y2="0%"><stop offset="20%" stop-color="#adbcff" stop-opacity="1"></stop><stop offset="80%" stop-color="#6fd7ff" stop-opacity="1"></stop></linearGradient></defs><defs><linearGradient id="grad1_2" x1="33.3%" y1="100%" x2="100%" y2="0%"><stop offset="20%" stop-color="#52ecf9" stop-opacity="1"></stop><stop offset="80%" stop-color="#6fd7ff" stop-opacity="1"></stop></linearGradient></defs><defs><linearGradient id="grad1_3" x1="33.3%" y1="100%" x2="100%" y2="0%"><stop offset="20%" stop-color="#52ecf9" stop-opacity="1"></stop><stop offset="80%" stop-color="#89fad2" stop-opacity="1"></stop></linearGradient></defs><defs><linearGradient id="grad1_4" x1="33.3%" y1="100%" x2="100%" y2="0%"><stop offset="20%" stop-color="#d5ffad" stop-opacity="1"></stop><stop offset="80%" stop-color="#89fad2" stop-opacity="1"></stop></linearGradient></defs><defs><linearGradient id="grad2_0" x1="0%" y1="100%" x2="66.7%" y2="0%"><stop offset="20%" stop-color="#adbcff" stop-opacity="1"></stop><stop offset="80%" stop-color="#adbcff" stop-opacity="1"></stop></linearGradient></defs><defs><linearGradient id="grad2_1" x1="0%" y1="100%" x2="66.7%" y2="0%"><stop offset="20%" stop-color="#6fd7ff" stop-opacity="1"></stop><stop offset="80%" stop-color="#adbcff" stop-opacity="1"></stop></linearGradient></defs><defs><linearGradient id="grad2_2" x1="0%" y1="100%" x2="66.7%" y2="0%"><stop offset="20%" stop-color="#6fd7ff" stop-opacity="1"></stop><stop offset="80%" stop-color="#52ecf9" stop-opacity="1"></stop></linearGradient></defs><defs><linearGradient id="grad2_3" x1="0%" y1="100%" x2="66.7%" y2="0%"><stop offset="20%" stop-color="#89fad2" stop-opacity="1"></stop><stop offset="80%" stop-color="#52ecf9" stop-opacity="1"></stop></linearGradient></defs><defs><linearGradient id="grad2_4" x1="0%" y1="100%" x2="66.7%" y2="0%"><stop offset="20%" stop-color="#89fad2" stop-opacity="1"></stop><stop offset="80%" stop-color="#d5ffad" stop-opacity="1"></stop></linearGradient></defs><g transform="translate(900, 600)"><path d="M-378.6 0C-379.9 -35.3 -381.1 -70.6 -365.7 -98C-350.2 -125.4 -318 -145 -298.8 -172.5C-279.5 -200 -273.3 -235.5 -248.9 -248.9C-224.5 -262.3 -182 -253.5 -154.5 -267.6C-127 -281.7 -114.6 -318.7 -91.4 -341C-68.1 -363.3 -34.1 -370.9 0 -378.6L0 0Z" fill="#affebe"></path><path d="M-302.9 0C-303.9 -28.2 -304.9 -56.5 -292.5 -78.4C-280.2 -100.3 -254.4 -116 -239 -138C-223.6 -160 -218.6 -188.4 -199.1 -199.1C-179.6 -209.8 -145.6 -202.8 -123.6 -214.1C-101.6 -225.4 -91.7 -254.9 -73.1 -272.8C-54.5 -290.6 -27.2 -296.7 0 -302.9L0 0Z" fill="#68f4e7"></path><path d="M-227.1 0C-227.9 -21.2 -228.7 -42.3 -219.4 -58.8C-210.1 -75.2 -190.8 -87 -179.3 -103.5C-167.7 -120 -164 -141.3 -149.3 -149.3C-134.7 -157.4 -109.2 -152.1 -92.7 -160.6C-76.2 -169 -68.8 -191.2 -54.8 -204.6C-40.9 -218 -20.4 -222.6 0 -227.1L0 0Z" fill="#56e2ff"></path><path d="M-151.4 0C-151.9 -14.1 -152.5 -28.2 -146.3 -39.2C-140.1 -50.2 -127.2 -58 -119.5 -69C-111.8 -80 -109.3 -94.2 -99.6 -99.6C-89.8 -104.9 -72.8 -101.4 -61.8 -107C-50.8 -112.7 -45.8 -127.5 -36.5 -136.4C-27.2 -145.3 -13.6 -148.4 0 -151.4L0 0Z" fill="#8fcaff"></path><path d="M-75.7 0C-76 -7.1 -76.2 -14.1 -73.1 -19.6C-70 -25.1 -63.6 -29 -59.8 -34.5C-55.9 -40 -54.7 -47.1 -49.8 -49.8C-44.9 -52.5 -36.4 -50.7 -30.9 -53.5C-25.4 -56.3 -22.9 -63.7 -18.3 -68.2C-13.6 -72.7 -6.8 -74.2 0 -75.7L0 0Z" fill="#adbcff"></path></g><g transform="translate(0, 0)"><path d="M378.6 0C361.4 28.2 344.2 56.3 341 91.4C337.7 126.4 348.4 168.3 327.9 189.3C307.3 210.3 255.5 210.5 225.6 225.6C195.6 240.6 187.5 270.6 169 292.7C150.5 314.8 121.5 328.9 91.6 341.9C61.7 354.9 30.9 366.8 0 378.6L0 0Z" fill="#affebe"></path><path d="M302.9 0C289.1 22.5 275.4 45.1 272.8 73.1C270.2 101.1 278.7 134.6 262.3 151.4C245.8 168.3 204.4 168.4 180.5 180.5C156.5 192.5 150 216.5 135.2 234.2C120.4 251.8 97.2 263.2 73.3 273.6C49.4 283.9 24.7 293.4 0 302.9L0 0Z" fill="#68f4e7"></path><path d="M227.1 0C216.8 16.9 206.5 33.8 204.6 54.8C202.6 75.8 209 101 196.7 113.6C184.4 126.2 153.3 126.3 135.3 135.3C117.4 144.4 112.5 162.4 101.4 175.6C90.3 188.9 72.9 197.4 55 205.2C37 213 18.5 220.1 0 227.1L0 0Z" fill="#56e2ff"></path><path d="M151.4 0C144.6 11.3 137.7 22.5 136.4 36.5C135.1 50.6 139.4 67.3 131.1 75.7C122.9 84.1 102.2 84.2 90.2 90.2C78.2 96.3 75 108.3 67.6 117.1C60.2 125.9 48.6 131.6 36.6 136.8C24.7 142 12.3 146.7 0 151.4L0 0Z" fill="#8fcaff"></path><path d="M75.7 0C72.3 5.6 68.8 11.3 68.2 18.3C67.5 25.3 69.7 33.7 65.6 37.9C61.5 42.1 51.1 42.1 45.1 45.1C39.1 48.1 37.5 54.1 33.8 58.5C30.1 63 24.3 65.8 18.3 68.4C12.3 71 6.2 73.4 0 75.7L0 0Z" fill="#adbcff"></path></g></svg>