<svg id="visual" viewBox="0 0 900 600" width="900" height="600" xmlns="http://www.w3.org/2000/svg" xmlns:xlink="http://www.w3.org/1999/xlink" version="1.1"><rect x="0" y="0" width="900" height="600" fill="#d5ffad"></rect><defs><linearGradient id="grad1_0" x1="33.3%" y1="0%" x2="100%" y2="100%"><stop offset="20%" stop-color="#adbcff" stop-opacity="1"></stop><stop offset="80%" stop-color="#adbcff" stop-opacity="1"></stop></linearGradient></defs><defs><linearGradient id="grad1_1" x1="33.3%" y1="0%" x2="100%" y2="100%"><stop offset="20%" stop-color="#adbcff" stop-opacity="1"></stop><stop offset="80%" stop-color="#6fd7ff" stop-opacity="1"></stop></linearGradient></defs><defs><linearGradient id="grad1_2" x1="33.3%" y1="0%" x2="100%" y2="100%"><stop offset="20%" stop-color="#52ecf9" stop-opacity="1"></stop><stop offset="80%" stop-color="#6fd7ff" stop-opacity="1"></stop></linearGradient></defs><defs><linearGradient id="grad1_3" x1="33.3%" y1="0%" x2="100%" y2="100%"><stop offset="20%" stop-color="#52ecf9" stop-opacity="1"></stop><stop offset="80%" stop-color="#89fad2" stop-opacity="1"></stop></linearGradient></defs><defs><linearGradient id="grad1_4" x1="33.3%" y1="0%" x2="100%" y2="100%"><stop offset="20%" stop-color="#d5ffad" stop-opacity="1"></stop><stop offset="80%" stop-color="#89fad2" stop-opacity="1"></stop></linearGradient></defs><defs><linearGradient id="grad2_0" x1="0%" y1="0%" x2="66.7%" y2="100%"><stop offset="20%" stop-color="#adbcff" stop-opacity="1"></stop><stop offset="80%" stop-color="#adbcff" stop-opacity="1"></stop></linearGradient></defs><defs><linearGradient id="grad2_1" x1="0%" y1="0%" x2="66.7%" y2="100%"><stop offset="20%" stop-color="#6fd7ff" stop-opacity="1"></stop><stop offset="80%" stop-color="#adbcff" stop-opacity="1"></stop></linearGradient></defs><defs><linearGradient id="grad2_2" x1="0%" y1="0%" x2="66.7%" y2="100%"><stop offset="20%" stop-color="#6fd7ff" stop-opacity="1"></stop><stop offset="80%" stop-color="#52ecf9" stop-opacity="1"></stop></linearGradient></defs><defs><linearGradient id="grad2_3" x1="0%" y1="0%" x2="66.7%" y2="100%"><stop offset="20%" stop-color="#89fad2" stop-opacity="1"></stop><stop offset="80%" stop-color="#52ecf9" stop-opacity="1"></stop></linearGradient></defs><defs><linearGradient id="grad2_4" x1="0%" y1="0%" x2="66.7%" y2="100%"><stop offset="20%" stop-color="#89fad2" stop-opacity="1"></stop><stop offset="80%" stop-color="#d5ffad" stop-opacity="1"></stop></linearGradient></defs><g transform="translate(900, 0)"><path d="M0 378.6C-35.3 379.9 -70.6 381.1 -98 365.7C-125.4 350.2 -145 318 -172.5 298.8C-200 279.5 -235.5 273.3 -248.9 248.9C-262.3 224.5 -253.5 182 -267.6 154.5C-281.7 127 -318.7 114.6 -341 91.4C-363.3 68.1 -370.9 34.1 -378.6 0L0 0Z" fill="#affebe"></path><path d="M0 302.9C-28.2 303.9 -56.5 304.9 -78.4 292.5C-100.3 280.2 -116 254.4 -138 239C-160 223.6 -188.4 218.6 -199.1 199.1C-209.8 179.6 -202.8 145.6 -214.1 123.6C-225.4 101.6 -254.9 91.7 -272.8 73.1C-290.6 54.5 -296.7 27.2 -302.9 0L0 0Z" fill="#68f4e7"></path><path d="M0 227.1C-21.2 227.9 -42.3 228.7 -58.8 219.4C-75.2 210.1 -87 190.8 -103.5 179.3C-120 167.7 -141.3 164 -149.3 149.3C-157.4 134.7 -152.1 109.2 -160.6 92.7C-169 76.2 -191.2 68.8 -204.6 54.8C-218 40.9 -222.6 20.4 -227.1 0L0 0Z" fill="#56e2ff"></path><path d="M0 151.4C-14.1 151.9 -28.2 152.5 -39.2 146.3C-50.2 140.1 -58 127.2 -69 119.5C-80 111.8 -94.2 109.3 -99.6 99.6C-104.9 89.8 -101.4 72.8 -107 61.8C-112.7 50.8 -127.5 45.8 -136.4 36.5C-145.3 27.2 -148.4 13.6 -151.4 0L0 0Z" fill="#8fcaff"></path><path d="M0 75.7C-7.1 76 -14.1 76.2 -19.6 73.1C-25.1 70 -29 63.6 -34.5 59.8C-40 55.9 -47.1 54.7 -49.8 49.8C-52.5 44.9 -50.7 36.4 -53.5 30.9C-56.3 25.4 -63.7 22.9 -68.2 18.3C-72.7 13.6 -74.2 6.8 -75.7 0L0 0Z" fill="#adbcff"></path></g><g transform="translate(0, 600)"><path d="M0 -378.6C28.2 -361.4 56.3 -344.2 91.4 -341C126.4 -337.7 168.3 -348.4 189.3 -327.9C210.3 -307.3 210.5 -255.5 225.6 -225.6C240.6 -195.6 270.6 -187.5 292.7 -169C314.8 -150.5 328.9 -121.5 341.9 -91.6C354.9 -61.7 366.8 -30.9 378.6 0L0 0Z" fill="#affebe"></path><path d="M0 -302.9C22.5 -289.1 45.1 -275.4 73.1 -272.8C101.1 -270.2 134.6 -278.7 151.4 -262.3C168.3 -245.8 168.4 -204.4 180.5 -180.5C192.5 -156.5 216.5 -150 234.2 -135.2C251.8 -120.4 263.2 -97.2 273.6 -73.3C283.9 -49.4 293.4 -24.7 302.9 0L0 0Z" fill="#68f4e7"></path><path d="M0 -227.1C16.9 -216.8 33.8 -206.5 54.8 -204.6C75.8 -202.6 101 -209 113.6 -196.7C126.2 -184.4 126.3 -153.3 135.3 -135.3C144.4 -117.4 162.4 -112.5 175.6 -101.4C188.9 -90.3 197.4 -72.9 205.2 -55C213 -37 220.1 -18.5 227.1 0L0 0Z" fill="#56e2ff"></path><path d="M0 -151.4C11.3 -144.6 22.5 -137.7 36.5 -136.4C50.6 -135.1 67.3 -139.4 75.7 -131.1C84.1 -122.9 84.2 -102.2 90.2 -90.2C96.3 -78.2 108.3 -75 117.1 -67.6C125.9 -60.2 131.6 -48.6 136.8 -36.6C142 -24.7 146.7 -12.3 151.4 0L0 0Z" fill="#8fcaff"></path><path d="M0 -75.7C5.6 -72.3 11.3 -68.8 18.3 -68.2C25.3 -67.5 33.7 -69.7 37.9 -65.6C42.1 -61.5 42.1 -51.1 45.1 -45.1C48.1 -39.1 54.1 -37.5 58.5 -33.8C63 -30.1 65.8 -24.3 68.4 -18.3C71 -12.3 73.4 -6.2 75.7 0L0 0Z" fill="#adbcff"></path></g></svg>