<svg id="visual" viewBox="0 0 900 600" width="900" height="600" xmlns="http://www.w3.org/2000/svg" xmlns:xlink="http://www.w3.org/1999/xlink" version="1.1"><path d="M0 351L21.5 362.5C43 374 86 397 128.8 405.2C171.7 413.3 214.3 406.7 257.2 401.8C300 397 343 394 385.8 391.5C428.7 389 471.3 387 514.2 389.2C557 391.3 600 397.7 642.8 406.3C685.7 415 728.3 426 771.2 418C814 410 857 383 878.5 369.5L900 356L900 601L878.5 601C857 601 814 601 771.2 601C728.3 601 685.7 601 642.8 601C600 601 557 601 514.2 601C471.3 601 428.7 601 385.8 601C343 601 300 601 257.2 601C214.3 601 171.7 601 128.8 601C86 601 43 601 21.5 601L0 601Z" fill="#b7e53c"></path><path d="M0 419L21.5 419.5C43 420 86 421 128.8 429.7C171.7 438.3 214.3 454.7 257.2 455.5C300 456.3 343 441.7 385.8 439.5C428.7 437.3 471.3 447.7 514.2 456.2C557 464.7 600 471.3 642.8 464.2C685.7 457 728.3 436 771.2 429.2C814 422.3 857 429.7 878.5 433.3L900 437L900 601L878.5 601C857 601 814 601 771.2 601C728.3 601 685.7 601 642.8 601C600 601 557 601 514.2 601C471.3 601 428.7 601 385.8 601C343 601 300 601 257.2 601C214.3 601 171.7 601 128.8 601C86 601 43 601 21.5 601L0 601Z" fill="#40e099"></path><path d="M0 468L21.5 474.3C43 480.7 86 493.3 128.8 496C171.7 498.7 214.3 491.3 257.2 485.2C300 479 343 474 385.8 475.2C428.7 476.3 471.3 483.7 514.2 488C557 492.3 600 493.7 642.8 490.7C685.7 487.7 728.3 480.3 771.2 473.7C814 467 857 461 878.5 458L900 455L900 601L878.5 601C857 601 814 601 771.2 601C728.3 601 685.7 601 642.8 601C600 601 557 601 514.2 601C471.3 601 428.7 601 385.8 601C343 601 300 601 257.2 601C214.3 601 171.7 601 128.8 601C86 601 43 601 21.5 601L0 601Z" fill="#00cccf"></path><path d="M0 505L21.5 504C43 503 86 501 128.8 504C171.7 507 214.3 515 257.2 512.7C300 510.3 343 497.7 385.8 500.8C428.7 504 471.3 523 514.2 526.2C557 529.3 600 516.7 642.8 506.8C685.7 497 728.3 490 771.2 491.5C814 493 857 503 878.5 508L900 513L900 601L878.5 601C857 601 814 601 771.2 601C728.3 601 685.7 601 642.8 601C600 601 557 601 514.2 601C471.3 601 428.7 601 385.8 601C343 601 300 601 257.2 601C214.3 601 171.7 601 128.8 601C86 601 43 601 21.5 601L0 601Z" fill="#00b0e7"></path><path d="M0 548L21.5 547.8C43 547.7 86 547.3 128.8 548.5C171.7 549.7 214.3 552.3 257.2 548.8C300 545.3 343 535.7 385.8 531.5C428.7 527.3 471.3 528.7 514.2 528.8C557 529 600 528 642.8 533.2C685.7 538.3 728.3 549.7 771.2 555C814 560.3 857 559.7 878.5 559.3L900 559L900 601L878.5 601C857 601 814 601 771.2 601C728.3 601 685.7 601 642.8 601C600 601 557 601 514.2 601C471.3 601 428.7 601 385.8 601C343 601 300 601 257.2 601C214.3 601 171.7 601 128.8 601C86 601 43 601 21.5 601L0 601Z" fill="#378ce6"></path></svg>