<svg id="visual" viewBox="0 0 960 540" width="960" height="540" xmlns="http://www.w3.org/2000/svg" xmlns:xlink="http://www.w3.org/1999/xlink" version="1.1"><path d="M0 151L16 153.8C32 156.7 64 162.3 96 166.8C128 171.3 160 174.7 192 179.5C224 184.3 256 190.7 288 197.8C320 205 352 213 384 205.8C416 198.7 448 176.3 480 169.7C512 163 544 172 576 173.7C608 175.3 640 169.7 672 170.5C704 171.3 736 178.7 768 183.3C800 188 832 190 864 182C896 174 928 156 944 147L960 138L960 0L944 0C928 0 896 0 864 0C832 0 800 0 768 0C736 0 704 0 672 0C640 0 608 0 576 0C544 0 512 0 480 0C448 0 416 0 384 0C352 0 320 0 288 0C256 0 224 0 192 0C160 0 128 0 96 0C64 0 32 0 16 0L0 0Z" fill="#eef352"></path><path d="M0 130L16 131.8C32 133.7 64 137.3 96 145.7C128 154 160 167 192 173.2C224 179.3 256 178.7 288 171.5C320 164.3 352 150.7 384 145C416 139.3 448 141.7 480 141.7C512 141.7 544 139.3 576 142.8C608 146.3 640 155.7 672 155.7C704 155.7 736 146.3 768 141.2C800 136 832 135 864 131.5C896 128 928 122 944 119L960 116L960 0L944 0C928 0 896 0 864 0C832 0 800 0 768 0C736 0 704 0 672 0C640 0 608 0 576 0C544 0 512 0 480 0C448 0 416 0 384 0C352 0 320 0 288 0C256 0 224 0 192 0C160 0 128 0 96 0C64 0 32 0 16 0L0 0Z" fill="#70e997"></path><path d="M0 86L16 84.7C32 83.3 64 80.7 96 80C128 79.3 160 80.7 192 83C224 85.3 256 88.7 288 94.8C320 101 352 110 384 112.7C416 115.3 448 111.7 480 115C512 118.3 544 128.7 576 133.7C608 138.7 640 138.3 672 138.5C704 138.7 736 139.3 768 140.3C800 141.3 832 142.7 864 133C896 123.3 928 102.7 944 92.3L960 82L960 0L944 0C928 0 896 0 864 0C832 0 800 0 768 0C736 0 704 0 672 0C640 0 608 0 576 0C544 0 512 0 480 0C448 0 416 0 384 0C352 0 320 0 288 0C256 0 224 0 192 0C160 0 128 0 96 0C64 0 32 0 16 0L0 0Z" fill="#00cdcb"></path><path d="M0 62L16 62C32 62 64 62 96 63.2C128 64.3 160 66.7 192 73.2C224 79.7 256 90.3 288 93C320 95.7 352 90.3 384 83C416 75.7 448 66.3 480 68.7C512 71 544 85 576 85C608 85 640 71 672 63C704 55 736 53 768 59.5C800 66 832 81 864 87C896 93 928 90 944 88.5L960 87L960 0L944 0C928 0 896 0 864 0C832 0 800 0 768 0C736 0 704 0 672 0C640 0 608 0 576 0C544 0 512 0 480 0C448 0 416 0 384 0C352 0 320 0 288 0C256 0 224 0 192 0C160 0 128 0 96 0C64 0 32 0 16 0L0 0Z" fill="#00a7e2"></path><path d="M0 45L16 43.2C32 41.3 64 37.7 96 40.7C128 43.7 160 53.3 192 53.5C224 53.7 256 44.3 288 40C320 35.7 352 36.3 384 34.3C416 32.3 448 27.7 480 28.2C512 28.7 544 34.3 576 41C608 47.7 640 55.3 672 58.2C704 61 736 59 768 53.7C800 48.3 832 39.7 864 41C896 42.3 928 53.7 944 59.3L960 65L960 0L944 0C928 0 896 0 864 0C832 0 800 0 768 0C736 0 704 0 672 0C640 0 608 0 576 0C544 0 512 0 480 0C448 0 416 0 384 0C352 0 320 0 288 0C256 0 224 0 192 0C160 0 128 0 96 0C64 0 32 0 16 0L0 0Z" fill="#2f76d7"></path></svg>