<svg id="visual" viewBox="0 0 960 540" width="960" height="540" xmlns="http://www.w3.org/2000/svg" xmlns:xlink="http://www.w3.org/1999/xlink" version="1.1"><path d="M0 387L16 384.2C32 381.3 64 375.7 96 371.2C128 366.7 160 363.3 192 358.5C224 353.7 256 347.3 288 340.2C320 333 352 325 384 332.2C416 339.3 448 361.7 480 368.3C512 375 544 366 576 364.3C608 362.7 640 368.3 672 367.5C704 366.7 736 359.3 768 354.7C800 350 832 348 864 356C896 364 928 382 944 391L960 400L960 541L944 541C928 541 896 541 864 541C832 541 800 541 768 541C736 541 704 541 672 541C640 541 608 541 576 541C544 541 512 541 480 541C448 541 416 541 384 541C352 541 320 541 288 541C256 541 224 541 192 541C160 541 128 541 96 541C64 541 32 541 16 541L0 541Z" fill="#eef352"></path><path d="M0 408L16 406.2C32 404.3 64 400.7 96 392.3C128 384 160 371 192 364.8C224 358.7 256 359.3 288 366.5C320 373.7 352 387.3 384 393C416 398.7 448 396.3 480 396.3C512 396.3 544 398.7 576 395.2C608 391.7 640 382.3 672 382.3C704 382.3 736 391.7 768 396.8C800 402 832 403 864 406.5C896 410 928 416 944 419L960 422L960 541L944 541C928 541 896 541 864 541C832 541 800 541 768 541C736 541 704 541 672 541C640 541 608 541 576 541C544 541 512 541 480 541C448 541 416 541 384 541C352 541 320 541 288 541C256 541 224 541 192 541C160 541 128 541 96 541C64 541 32 541 16 541L0 541Z" fill="#70e997"></path><path d="M0 452L16 453.3C32 454.7 64 457.3 96 458C128 458.7 160 457.3 192 455C224 452.7 256 449.3 288 443.2C320 437 352 428 384 425.3C416 422.7 448 426.3 480 423C512 419.7 544 409.3 576 404.3C608 399.3 640 399.7 672 399.5C704 399.3 736 398.7 768 397.7C800 396.7 832 395.3 864 405C896 414.7 928 435.3 944 445.7L960 456L960 541L944 541C928 541 896 541 864 541C832 541 800 541 768 541C736 541 704 541 672 541C640 541 608 541 576 541C544 541 512 541 480 541C448 541 416 541 384 541C352 541 320 541 288 541C256 541 224 541 192 541C160 541 128 541 96 541C64 541 32 541 16 541L0 541Z" fill="#00cdcb"></path><path d="M0 476L16 476C32 476 64 476 96 474.8C128 473.7 160 471.3 192 464.8C224 458.3 256 447.7 288 445C320 442.3 352 447.7 384 455C416 462.3 448 471.7 480 469.3C512 467 544 453 576 453C608 453 640 467 672 475C704 483 736 485 768 478.5C800 472 832 457 864 451C896 445 928 448 944 449.5L960 451L960 541L944 541C928 541 896 541 864 541C832 541 800 541 768 541C736 541 704 541 672 541C640 541 608 541 576 541C544 541 512 541 480 541C448 541 416 541 384 541C352 541 320 541 288 541C256 541 224 541 192 541C160 541 128 541 96 541C64 541 32 541 16 541L0 541Z" fill="#00a7e2"></path><path d="M0 493L16 494.8C32 496.7 64 500.3 96 497.3C128 494.3 160 484.7 192 484.5C224 484.3 256 493.7 288 498C320 502.3 352 501.7 384 503.7C416 505.7 448 510.3 480 509.8C512 509.3 544 503.7 576 497C608 490.3 640 482.7 672 479.8C704 477 736 479 768 484.3C800 489.7 832 498.3 864 497C896 495.7 928 484.3 944 478.7L960 473L960 541L944 541C928 541 896 541 864 541C832 541 800 541 768 541C736 541 704 541 672 541C640 541 608 541 576 541C544 541 512 541 480 541C448 541 416 541 384 541C352 541 320 541 288 541C256 541 224 541 192 541C160 541 128 541 96 541C64 541 32 541 16 541L0 541Z" fill="#2f76d7"></path></svg>