<svg id="visual" viewBox="0 0 960 540" width="960" height="540" xmlns="http://www.w3.org/2000/svg" xmlns:xlink="http://www.w3.org/1999/xlink" version="1.1"><path d="M0 210L6.7 204.7C13.3 199.3 26.7 188.7 40 170.7C53.3 152.7 66.7 127.3 80 131.3C93.3 135.3 106.7 168.7 120 179.7C133.3 190.7 146.7 179.3 160 162.2C173.3 145 186.7 122 200 99.8C213.3 77.7 226.7 56.3 240 45.7C253.3 35 266.7 35 280 38.5C293.3 42 306.7 49 320 54.8C333.3 60.7 346.7 65.3 360 58.3C373.3 51.3 386.7 32.7 400 48C413.3 63.3 426.7 112.7 440 113C453.3 113.3 466.7 64.7 480 39.7C493.3 14.7 506.7 13.3 520 14.3C533.3 15.3 546.7 18.7 560 30.7C573.3 42.7 586.7 63.3 600 74.3C613.3 85.3 626.7 86.7 640 76.8C653.3 67 666.7 46 680 40C693.3 34 706.7 43 720 49.8C733.3 56.7 746.7 61.3 760 62.2C773.3 63 786.7 60 800 66.7C813.3 73.3 826.7 89.7 840 104.5C853.3 119.3 866.7 132.7 880 129C893.3 125.3 906.7 104.7 920 111.3C933.3 118 946.7 152 953.3 169L960 186L960 0L953.3 0C946.7 0 933.3 0 920 0C906.7 0 893.3 0 880 0C866.7 0 853.3 0 840 0C826.7 0 813.3 0 800 0C786.7 0 773.3 0 760 0C746.7 0 733.3 0 720 0C706.7 0 693.3 0 680 0C666.7 0 653.3 0 640 0C626.7 0 613.3 0 600 0C586.7 0 573.3 0 560 0C546.7 0 533.3 0 520 0C506.7 0 493.3 0 480 0C466.7 0 453.3 0 440 0C426.7 0 413.3 0 400 0C386.7 0 373.3 0 360 0C346.7 0 333.3 0 320 0C306.7 0 293.3 0 280 0C266.7 0 253.3 0 240 0C226.7 0 213.3 0 200 0C186.7 0 173.3 0 160 0C146.7 0 133.3 0 120 0C106.7 0 93.3 0 80 0C66.7 0 53.3 0 40 0C26.7 0 13.3 0 6.7 0L0 0Z" fill="#6c2700" stroke-linecap="round" stroke-linejoin="miter"></path></svg>