<svg id="visual" viewBox="0 0 960 540" width="960" height="540" xmlns="http://www.w3.org/2000/svg" xmlns:xlink="http://www.w3.org/1999/xlink" version="1.1"><path d="M0 463L10.7 463.5C21.3 464 42.7 465 64 462.2C85.3 459.3 106.7 452.7 128 447.7C149.3 442.7 170.7 439.3 192 438.2C213.3 437 234.7 438 256 443.5C277.3 449 298.7 459 320 461.3C341.3 463.7 362.7 458.3 384 459C405.3 459.7 426.7 466.3 448 470.7C469.3 475 490.7 477 512 473C533.3 469 554.7 459 576 458.8C597.3 458.7 618.7 468.3 640 466.8C661.3 465.3 682.7 452.7 704 446.7C725.3 440.7 746.7 441.3 768 445.7C789.3 450 810.7 458 832 462.7C853.3 467.3 874.7 468.7 896 469.8C917.3 471 938.7 472 949.3 472.5L960 473L960 541L949.3 541C938.7 541 917.3 541 896 541C874.7 541 853.3 541 832 541C810.7 541 789.3 541 768 541C746.7 541 725.3 541 704 541C682.7 541 661.3 541 640 541C618.7 541 597.3 541 576 541C554.7 541 533.3 541 512 541C490.7 541 469.3 541 448 541C426.7 541 405.3 541 384 541C362.7 541 341.3 541 320 541C298.7 541 277.3 541 256 541C234.7 541 213.3 541 192 541C170.7 541 149.3 541 128 541C106.7 541 85.3 541 64 541C42.7 541 21.3 541 10.7 541L0 541Z" fill="#6c2700" stroke-linecap="round" stroke-linejoin="miter"></path></svg>